<mxfile host="app.diagrams.net" modified="2022-04-14T16:04:28.263Z" agent="5.0 (Macintosh; Intel Mac OS X 10_15_7) AppleWebKit/605.1.15 (KHTML, like Gecko) Version/14.1.2 Safari/605.1.15" etag="78VtOCVuy51XKauz4k9a" version="17.4.4" type="github">
  <diagram name="Page-1" id="edf60f1a-56cd-e834-aa8a-f176f3a09ee4">
    <mxGraphModel dx="946" dy="1391" grid="1" gridSize="10" guides="1" tooltips="1" connect="1" arrows="1" fold="1" page="1" pageScale="1" pageWidth="1100" pageHeight="850" background="none" math="0" shadow="0">
      <root>
        <mxCell id="0" />
        <mxCell id="1" parent="0" />
        <mxCell id="60e70716793133e9-57" style="edgeStyle=orthogonalEdgeStyle;rounded=0;html=1;labelBackgroundColor=none;startSize=5;endArrow=classicThin;endFill=1;endSize=5;jettySize=auto;orthogonalLoop=1;strokeWidth=1;fontFamily=Verdana;fontSize=8" parent="1" target="60e70716793133e9-30" edge="1">
          <mxGeometry relative="1" as="geometry">
            <mxPoint x="340" y="1320" as="sourcePoint" />
          </mxGeometry>
        </mxCell>
        <mxCell id="60e70716793133e9-30" value="End" style="strokeWidth=1;html=1;shape=mxgraph.flowchart.terminator;whiteSpace=wrap;rounded=0;shadow=1;labelBackgroundColor=none;fontFamily=Verdana;fontSize=8;align=center;" parent="1" vertex="1">
          <mxGeometry x="310" y="1370" width="60" height="30" as="geometry" />
        </mxCell>
        <mxCell id="Ws-c2ICvYeb6l43eeokj-5" value="" style="edgeStyle=orthogonalEdgeStyle;rounded=0;orthogonalLoop=1;jettySize=auto;html=1;" edge="1" parent="1" source="Ws-c2ICvYeb6l43eeokj-2">
          <mxGeometry relative="1" as="geometry">
            <mxPoint x="360" y="20" as="targetPoint" />
          </mxGeometry>
        </mxCell>
        <mxCell id="Ws-c2ICvYeb6l43eeokj-25" value="" style="edgeStyle=orthogonalEdgeStyle;rounded=0;orthogonalLoop=1;jettySize=auto;html=1;" edge="1" parent="1" source="Ws-c2ICvYeb6l43eeokj-2" target="Ws-c2ICvYeb6l43eeokj-24">
          <mxGeometry relative="1" as="geometry" />
        </mxCell>
        <mxCell id="Ws-c2ICvYeb6l43eeokj-2" value="Start" style="strokeWidth=1;html=1;shape=mxgraph.flowchart.terminator;whiteSpace=wrap;rounded=0;shadow=1;labelBackgroundColor=none;fontFamily=Verdana;fontSize=8;align=center;" vertex="1" parent="1">
          <mxGeometry x="330" y="-130" width="60" height="30" as="geometry" />
        </mxCell>
        <mxCell id="Ws-c2ICvYeb6l43eeokj-17" value="" style="edgeStyle=orthogonalEdgeStyle;rounded=0;orthogonalLoop=1;jettySize=auto;html=1;" edge="1" parent="1" target="Ws-c2ICvYeb6l43eeokj-9">
          <mxGeometry relative="1" as="geometry">
            <mxPoint x="360" y="80" as="sourcePoint" />
          </mxGeometry>
        </mxCell>
        <mxCell id="Ws-c2ICvYeb6l43eeokj-19" value="" style="edgeStyle=orthogonalEdgeStyle;rounded=0;orthogonalLoop=1;jettySize=auto;html=1;entryX=0.5;entryY=0;entryDx=0;entryDy=0;" edge="1" parent="1" target="Ws-c2ICvYeb6l43eeokj-8">
          <mxGeometry relative="1" as="geometry">
            <mxPoint x="300" y="50" as="sourcePoint" />
            <mxPoint x="200" y="50" as="targetPoint" />
          </mxGeometry>
        </mxCell>
        <mxCell id="Ws-c2ICvYeb6l43eeokj-21" value="" style="edgeStyle=orthogonalEdgeStyle;rounded=0;orthogonalLoop=1;jettySize=auto;html=1;entryX=0.5;entryY=0;entryDx=0;entryDy=0;" edge="1" parent="1" target="Ws-c2ICvYeb6l43eeokj-11">
          <mxGeometry relative="1" as="geometry">
            <mxPoint x="420" y="50" as="sourcePoint" />
            <mxPoint x="520" y="50" as="targetPoint" />
          </mxGeometry>
        </mxCell>
        <mxCell id="Ws-c2ICvYeb6l43eeokj-10" value="" style="edgeStyle=orthogonalEdgeStyle;rounded=0;orthogonalLoop=1;jettySize=auto;html=1;" edge="1" parent="1" source="Ws-c2ICvYeb6l43eeokj-8" target="Ws-c2ICvYeb6l43eeokj-9">
          <mxGeometry relative="1" as="geometry" />
        </mxCell>
        <mxCell id="Ws-c2ICvYeb6l43eeokj-62" value="" style="edgeStyle=orthogonalEdgeStyle;rounded=0;orthogonalLoop=1;jettySize=auto;html=1;" edge="1" parent="1" source="Ws-c2ICvYeb6l43eeokj-8">
          <mxGeometry relative="1" as="geometry">
            <mxPoint x="170" y="305" as="targetPoint" />
          </mxGeometry>
        </mxCell>
        <mxCell id="Ws-c2ICvYeb6l43eeokj-8" value="PlaylistRock&lt;br&gt;Display TotalSongTitles&lt;br&gt;TotalRunTime&lt;br&gt;&amp;amp;&amp;amp; Song [Title, Artist, Genre, SongLength]" style="rounded=0;whiteSpace=wrap;html=1;" vertex="1" parent="1">
          <mxGeometry x="100" y="120" width="140" height="90" as="geometry" />
        </mxCell>
        <mxCell id="Ws-c2ICvYeb6l43eeokj-12" value="" style="edgeStyle=orthogonalEdgeStyle;rounded=0;orthogonalLoop=1;jettySize=auto;html=1;" edge="1" parent="1" source="Ws-c2ICvYeb6l43eeokj-9" target="Ws-c2ICvYeb6l43eeokj-11">
          <mxGeometry relative="1" as="geometry" />
        </mxCell>
        <mxCell id="Ws-c2ICvYeb6l43eeokj-53" value="" style="edgeStyle=orthogonalEdgeStyle;rounded=0;orthogonalLoop=1;jettySize=auto;html=1;" edge="1" parent="1" source="Ws-c2ICvYeb6l43eeokj-9">
          <mxGeometry relative="1" as="geometry">
            <mxPoint x="440" y="300" as="targetPoint" />
          </mxGeometry>
        </mxCell>
        <mxCell id="Ws-c2ICvYeb6l43eeokj-9" value="PlaylistJazz&lt;br&gt;&lt;br&gt;Display TotalSongTitles&lt;br&gt;TotalRunTime&lt;br&gt;&amp;amp;&amp;amp; Song [Title, Artist, Genre, SongLength]" style="rounded=0;whiteSpace=wrap;html=1;" vertex="1" parent="1">
          <mxGeometry x="300" y="120" width="140" height="100" as="geometry" />
        </mxCell>
        <mxCell id="Ws-c2ICvYeb6l43eeokj-14" value="" style="edgeStyle=orthogonalEdgeStyle;rounded=0;orthogonalLoop=1;jettySize=auto;html=1;" edge="1" parent="1" source="Ws-c2ICvYeb6l43eeokj-11" target="Ws-c2ICvYeb6l43eeokj-13">
          <mxGeometry relative="1" as="geometry" />
        </mxCell>
        <mxCell id="Ws-c2ICvYeb6l43eeokj-59" value="" style="edgeStyle=orthogonalEdgeStyle;rounded=0;orthogonalLoop=1;jettySize=auto;html=1;" edge="1" parent="1" source="Ws-c2ICvYeb6l43eeokj-11">
          <mxGeometry relative="1" as="geometry">
            <mxPoint x="575" y="320" as="targetPoint" />
          </mxGeometry>
        </mxCell>
        <mxCell id="Ws-c2ICvYeb6l43eeokj-11" value="PlaylistAM (titles A-M)&lt;br&gt;&lt;br&gt;Display TotalSongTitles&lt;br&gt;TotalRunTime&lt;br&gt;&amp;amp;&amp;amp; Song [Title, Artist, Genre, SongLength]" style="rounded=0;whiteSpace=wrap;html=1;" vertex="1" parent="1">
          <mxGeometry x="500" y="120" width="150" height="100" as="geometry" />
        </mxCell>
        <mxCell id="Ws-c2ICvYeb6l43eeokj-16" value="" style="edgeStyle=orthogonalEdgeStyle;rounded=0;orthogonalLoop=1;jettySize=auto;html=1;" edge="1" parent="1" source="Ws-c2ICvYeb6l43eeokj-13" target="Ws-c2ICvYeb6l43eeokj-15">
          <mxGeometry relative="1" as="geometry" />
        </mxCell>
        <mxCell id="Ws-c2ICvYeb6l43eeokj-65" value="" style="edgeStyle=orthogonalEdgeStyle;rounded=0;orthogonalLoop=1;jettySize=auto;html=1;" edge="1" parent="1" source="Ws-c2ICvYeb6l43eeokj-13">
          <mxGeometry relative="1" as="geometry">
            <mxPoint x="780" y="350" as="targetPoint" />
          </mxGeometry>
        </mxCell>
        <mxCell id="Ws-c2ICvYeb6l43eeokj-13" value="PlaylistNZ (titles N-Z)&lt;br&gt;&lt;br&gt;Display TotalSongTitles&lt;br&gt;TotalRunTime&lt;br&gt;&amp;amp;&amp;amp; Song [Title, Artist, Genre, SongLength]" style="rounded=0;whiteSpace=wrap;html=1;" vertex="1" parent="1">
          <mxGeometry x="700" y="120" width="140" height="120" as="geometry" />
        </mxCell>
        <mxCell id="Ws-c2ICvYeb6l43eeokj-67" value="" style="edgeStyle=orthogonalEdgeStyle;rounded=0;orthogonalLoop=1;jettySize=auto;html=1;" edge="1" parent="1" source="Ws-c2ICvYeb6l43eeokj-15">
          <mxGeometry relative="1" as="geometry">
            <mxPoint x="985" y="445" as="targetPoint" />
          </mxGeometry>
        </mxCell>
        <mxCell id="Ws-c2ICvYeb6l43eeokj-15" value="PlaylistShort&lt;br&gt;&lt;br&gt;Display TotalSongTitles&lt;br&gt;TotalRunTime&lt;br&gt;&amp;amp;&amp;amp; Song [Title, Artist, Genre, SongLength]" style="rounded=0;whiteSpace=wrap;html=1;" vertex="1" parent="1">
          <mxGeometry x="920" y="230" width="130" height="110" as="geometry" />
        </mxCell>
        <mxCell id="Ws-c2ICvYeb6l43eeokj-33" value="" style="edgeStyle=orthogonalEdgeStyle;rounded=0;orthogonalLoop=1;jettySize=auto;html=1;entryX=1;entryY=0;entryDx=0;entryDy=0;" edge="1" parent="1" source="Ws-c2ICvYeb6l43eeokj-24">
          <mxGeometry relative="1" as="geometry">
            <mxPoint x="420" y="20" as="targetPoint" />
            <Array as="points">
              <mxPoint x="460" y="40" />
              <mxPoint x="420" y="40" />
            </Array>
          </mxGeometry>
        </mxCell>
        <mxCell id="Ws-c2ICvYeb6l43eeokj-36" value="" style="edgeStyle=orthogonalEdgeStyle;rounded=0;orthogonalLoop=1;jettySize=auto;html=1;" edge="1" parent="1" source="Ws-c2ICvYeb6l43eeokj-24">
          <mxGeometry relative="1" as="geometry">
            <mxPoint x="580" y="-65" as="targetPoint" />
          </mxGeometry>
        </mxCell>
        <mxCell id="Ws-c2ICvYeb6l43eeokj-24" value="Playlist Selected?&amp;nbsp;" style="rhombus;whiteSpace=wrap;html=1;" vertex="1" parent="1">
          <mxGeometry x="420" y="-105" width="80" height="80" as="geometry" />
        </mxCell>
        <mxCell id="Ws-c2ICvYeb6l43eeokj-26" value="No" style="text;html=1;align=center;verticalAlign=middle;resizable=0;points=[];autosize=1;strokeColor=none;fillColor=none;" vertex="1" parent="1">
          <mxGeometry x="485" y="-100" width="30" height="20" as="geometry" />
        </mxCell>
        <mxCell id="Ws-c2ICvYeb6l43eeokj-27" value="Yes" style="text;html=1;align=center;verticalAlign=middle;resizable=0;points=[];autosize=1;strokeColor=none;fillColor=none;" vertex="1" parent="1">
          <mxGeometry x="410" y="-40" width="40" height="20" as="geometry" />
        </mxCell>
        <mxCell id="Ws-c2ICvYeb6l43eeokj-41" value="" style="edgeStyle=orthogonalEdgeStyle;rounded=0;orthogonalLoop=1;jettySize=auto;html=1;" edge="1" parent="1" source="Ws-c2ICvYeb6l43eeokj-34">
          <mxGeometry relative="1" as="geometry">
            <mxPoint x="980" y="80" as="targetPoint" />
            <Array as="points">
              <mxPoint x="980" y="30" />
            </Array>
          </mxGeometry>
        </mxCell>
        <mxCell id="Ws-c2ICvYeb6l43eeokj-34" value="&lt;span style=&quot;font-family: &amp;#34;verdana&amp;#34; ; font-size: 8px&quot;&gt;Set total songs to 2000&lt;/span&gt;&lt;br style=&quot;font-family: &amp;#34;verdana&amp;#34; ; font-size: 8px&quot;&gt;&lt;span style=&quot;font-family: &amp;#34;verdana&amp;#34; ; font-size: 8px&quot;&gt;Set MaxLength to 110 mins&lt;/span&gt;&lt;br style=&quot;font-family: &amp;#34;verdana&amp;#34; ; font-size: 8px&quot;&gt;&lt;span style=&quot;font-family: &amp;#34;verdana&amp;#34; ; font-size: 8px&quot;&gt;Set MinLength to 100 mins&lt;/span&gt;" style="shape=parallelogram;perimeter=parallelogramPerimeter;whiteSpace=wrap;html=1;fixedSize=1;" vertex="1" parent="1">
          <mxGeometry x="290" y="20" width="140" height="70" as="geometry" />
        </mxCell>
        <mxCell id="Ws-c2ICvYeb6l43eeokj-39" value="" style="edgeStyle=orthogonalEdgeStyle;rounded=0;orthogonalLoop=1;jettySize=auto;html=1;" edge="1" parent="1" source="Ws-c2ICvYeb6l43eeokj-37">
          <mxGeometry relative="1" as="geometry">
            <mxPoint x="430" y="45" as="targetPoint" />
            <Array as="points">
              <mxPoint x="640" y="5" />
              <mxPoint x="700" y="5" />
              <mxPoint x="700" y="45" />
            </Array>
          </mxGeometry>
        </mxCell>
        <mxCell id="Ws-c2ICvYeb6l43eeokj-37" value="Run RandomPlaylist&lt;br&gt;&amp;amp;&amp;amp; RandomizeAll&lt;br&gt;Functions" style="rounded=0;whiteSpace=wrap;html=1;" vertex="1" parent="1">
          <mxGeometry x="580" y="-95" width="120" height="60" as="geometry" />
        </mxCell>
        <mxCell id="Ws-c2ICvYeb6l43eeokj-44" value="" style="edgeStyle=orthogonalEdgeStyle;rounded=0;orthogonalLoop=1;jettySize=auto;html=1;" edge="1" parent="1" source="Ws-c2ICvYeb6l43eeokj-42" target="Ws-c2ICvYeb6l43eeokj-15">
          <mxGeometry relative="1" as="geometry" />
        </mxCell>
        <mxCell id="Ws-c2ICvYeb6l43eeokj-49" value="" style="edgeStyle=orthogonalEdgeStyle;rounded=0;orthogonalLoop=1;jettySize=auto;html=1;" edge="1" parent="1" source="Ws-c2ICvYeb6l43eeokj-42" target="Ws-c2ICvYeb6l43eeokj-34">
          <mxGeometry relative="1" as="geometry">
            <mxPoint x="660" y="80" as="targetPoint" />
            <Array as="points">
              <mxPoint x="680" y="120" />
              <mxPoint x="680" y="55" />
            </Array>
          </mxGeometry>
        </mxCell>
        <mxCell id="Ws-c2ICvYeb6l43eeokj-42" value="Song 2 min or less?" style="rhombus;whiteSpace=wrap;html=1;" vertex="1" parent="1">
          <mxGeometry x="930" y="80" width="100" height="100" as="geometry" />
        </mxCell>
        <mxCell id="Ws-c2ICvYeb6l43eeokj-43" value="Yes" style="text;html=1;align=center;verticalAlign=middle;resizable=0;points=[];autosize=1;strokeColor=none;fillColor=none;" vertex="1" parent="1">
          <mxGeometry x="990" y="190" width="40" height="20" as="geometry" />
        </mxCell>
        <mxCell id="Ws-c2ICvYeb6l43eeokj-45" value="No" style="text;html=1;align=center;verticalAlign=middle;resizable=0;points=[];autosize=1;strokeColor=none;fillColor=none;" vertex="1" parent="1">
          <mxGeometry x="915" y="90" width="30" height="20" as="geometry" />
        </mxCell>
        <mxCell id="Ws-c2ICvYeb6l43eeokj-83" value="" style="edgeStyle=orthogonalEdgeStyle;rounded=0;orthogonalLoop=1;jettySize=auto;html=1;" edge="1" parent="1" source="Ws-c2ICvYeb6l43eeokj-63" target="Ws-c2ICvYeb6l43eeokj-74">
          <mxGeometry relative="1" as="geometry" />
        </mxCell>
        <mxCell id="Ws-c2ICvYeb6l43eeokj-63" value="Accept &amp;nbsp;User Inputs:&lt;br&gt;Stop&lt;br&gt;Play&lt;br&gt;Pause&lt;br&gt;Repeat&lt;br&gt;Skip&lt;br&gt;Rewind&lt;br&gt;FastForward" style="shape=parallelogram;perimeter=parallelogramPerimeter;whiteSpace=wrap;html=1;fixedSize=1;" vertex="1" parent="1">
          <mxGeometry x="110" y="310" width="160" height="130" as="geometry" />
        </mxCell>
        <mxCell id="Ws-c2ICvYeb6l43eeokj-82" value="" style="edgeStyle=orthogonalEdgeStyle;rounded=0;orthogonalLoop=1;jettySize=auto;html=1;" edge="1" parent="1" source="Ws-c2ICvYeb6l43eeokj-70" target="Ws-c2ICvYeb6l43eeokj-75">
          <mxGeometry relative="1" as="geometry" />
        </mxCell>
        <mxCell id="Ws-c2ICvYeb6l43eeokj-70" value="Accept &amp;nbsp;User Inputs:&lt;br&gt;Stop&lt;br&gt;Play&lt;br&gt;Pause&lt;br&gt;Repeat&lt;br&gt;Skip&lt;br&gt;Rewind&lt;br&gt;FastForward" style="shape=parallelogram;perimeter=parallelogramPerimeter;whiteSpace=wrap;html=1;fixedSize=1;" vertex="1" parent="1">
          <mxGeometry x="350" y="310" width="160" height="130" as="geometry" />
        </mxCell>
        <mxCell id="Ws-c2ICvYeb6l43eeokj-81" value="" style="edgeStyle=orthogonalEdgeStyle;rounded=0;orthogonalLoop=1;jettySize=auto;html=1;" edge="1" parent="1" source="Ws-c2ICvYeb6l43eeokj-71" target="Ws-c2ICvYeb6l43eeokj-76">
          <mxGeometry relative="1" as="geometry" />
        </mxCell>
        <mxCell id="Ws-c2ICvYeb6l43eeokj-71" value="Accept &amp;nbsp;User Inputs:&lt;br&gt;Stop&lt;br&gt;Play&lt;br&gt;Pause&lt;br&gt;Repeat&lt;br&gt;Skip&lt;br&gt;Rewind&lt;br&gt;FastForward" style="shape=parallelogram;perimeter=parallelogramPerimeter;whiteSpace=wrap;html=1;fixedSize=1;" vertex="1" parent="1">
          <mxGeometry x="510" y="325" width="160" height="130" as="geometry" />
        </mxCell>
        <mxCell id="Ws-c2ICvYeb6l43eeokj-80" value="" style="edgeStyle=orthogonalEdgeStyle;rounded=0;orthogonalLoop=1;jettySize=auto;html=1;" edge="1" parent="1" source="Ws-c2ICvYeb6l43eeokj-72" target="Ws-c2ICvYeb6l43eeokj-77">
          <mxGeometry relative="1" as="geometry" />
        </mxCell>
        <mxCell id="Ws-c2ICvYeb6l43eeokj-72" value="Accept &amp;nbsp;User Inputs:&lt;br&gt;Stop&lt;br&gt;Play&lt;br&gt;Pause&lt;br&gt;Repeat&lt;br&gt;Skip&lt;br&gt;Rewind&lt;br&gt;FastForward" style="shape=parallelogram;perimeter=parallelogramPerimeter;whiteSpace=wrap;html=1;fixedSize=1;" vertex="1" parent="1">
          <mxGeometry x="700" y="350" width="160" height="130" as="geometry" />
        </mxCell>
        <mxCell id="Ws-c2ICvYeb6l43eeokj-79" value="" style="edgeStyle=orthogonalEdgeStyle;rounded=0;orthogonalLoop=1;jettySize=auto;html=1;" edge="1" parent="1" source="Ws-c2ICvYeb6l43eeokj-73" target="Ws-c2ICvYeb6l43eeokj-78">
          <mxGeometry relative="1" as="geometry" />
        </mxCell>
        <mxCell id="Ws-c2ICvYeb6l43eeokj-73" value="Accept &amp;nbsp;User Inputs:&lt;br&gt;Stop&lt;br&gt;Play&lt;br&gt;Pause&lt;br&gt;Repeat&lt;br&gt;Skip&lt;br&gt;Rewind&lt;br&gt;FastForward" style="shape=parallelogram;perimeter=parallelogramPerimeter;whiteSpace=wrap;html=1;fixedSize=1;" vertex="1" parent="1">
          <mxGeometry x="905" y="450" width="160" height="130" as="geometry" />
        </mxCell>
        <mxCell id="Ws-c2ICvYeb6l43eeokj-89" value="" style="edgeStyle=orthogonalEdgeStyle;rounded=0;orthogonalLoop=1;jettySize=auto;html=1;" edge="1" parent="1" source="Ws-c2ICvYeb6l43eeokj-74" target="Ws-c2ICvYeb6l43eeokj-84">
          <mxGeometry relative="1" as="geometry" />
        </mxCell>
        <mxCell id="Ws-c2ICvYeb6l43eeokj-74" value="Run Corresponding Functions&lt;br&gt;StopSong&lt;br&gt;PlaySong&lt;br&gt;PauseSong&lt;br&gt;RepeatSong&lt;br&gt;SkipSong&lt;br&gt;RewindSong&lt;br&gt;FastForwardSong&lt;br&gt;SkipPlaylist" style="rounded=0;whiteSpace=wrap;html=1;" vertex="1" parent="1">
          <mxGeometry x="90" y="480" width="210" height="140" as="geometry" />
        </mxCell>
        <mxCell id="Ws-c2ICvYeb6l43eeokj-90" value="" style="edgeStyle=orthogonalEdgeStyle;rounded=0;orthogonalLoop=1;jettySize=auto;html=1;" edge="1" parent="1" source="Ws-c2ICvYeb6l43eeokj-75" target="Ws-c2ICvYeb6l43eeokj-85">
          <mxGeometry relative="1" as="geometry" />
        </mxCell>
        <mxCell id="Ws-c2ICvYeb6l43eeokj-75" value="Run Corresponding Functions&lt;br&gt;StopSong&lt;br&gt;PlaySong&lt;br&gt;PauseSong&lt;br&gt;RepeatSong&lt;br&gt;SkipSong&lt;br&gt;RewindSong&lt;br&gt;FastForwardSong&lt;br&gt;SkipPlaylist" style="rounded=0;whiteSpace=wrap;html=1;" vertex="1" parent="1">
          <mxGeometry x="310" y="480" width="190" height="130" as="geometry" />
        </mxCell>
        <mxCell id="Ws-c2ICvYeb6l43eeokj-91" value="" style="edgeStyle=orthogonalEdgeStyle;rounded=0;orthogonalLoop=1;jettySize=auto;html=1;" edge="1" parent="1" source="Ws-c2ICvYeb6l43eeokj-76" target="Ws-c2ICvYeb6l43eeokj-86">
          <mxGeometry relative="1" as="geometry" />
        </mxCell>
        <mxCell id="Ws-c2ICvYeb6l43eeokj-76" value="Run Corresponding Functions&lt;br&gt;StopSong&lt;br&gt;PlaySong&lt;br&gt;PauseSong&lt;br&gt;RepeatSong&lt;br&gt;SkipSong&lt;br&gt;RewindSong&lt;br&gt;FastForwardSong&lt;br&gt;SkipPlaylist" style="rounded=0;whiteSpace=wrap;html=1;" vertex="1" parent="1">
          <mxGeometry x="510" y="490" width="170" height="130" as="geometry" />
        </mxCell>
        <mxCell id="Ws-c2ICvYeb6l43eeokj-92" value="" style="edgeStyle=orthogonalEdgeStyle;rounded=0;orthogonalLoop=1;jettySize=auto;html=1;" edge="1" parent="1" source="Ws-c2ICvYeb6l43eeokj-77" target="Ws-c2ICvYeb6l43eeokj-87">
          <mxGeometry relative="1" as="geometry" />
        </mxCell>
        <mxCell id="Ws-c2ICvYeb6l43eeokj-77" value="Run Corresponding Functions&lt;br&gt;StopSong&lt;br&gt;PlaySong&lt;br&gt;PauseSong&lt;br&gt;RepeatSong&lt;br&gt;SkipSong&lt;br&gt;RewindSong&lt;br&gt;FastForwardSong&lt;br&gt;SkipPlaylist" style="rounded=0;whiteSpace=wrap;html=1;" vertex="1" parent="1">
          <mxGeometry x="690" y="540" width="170" height="130" as="geometry" />
        </mxCell>
        <mxCell id="Ws-c2ICvYeb6l43eeokj-93" value="" style="edgeStyle=orthogonalEdgeStyle;rounded=0;orthogonalLoop=1;jettySize=auto;html=1;" edge="1" parent="1" source="Ws-c2ICvYeb6l43eeokj-78" target="Ws-c2ICvYeb6l43eeokj-88">
          <mxGeometry relative="1" as="geometry" />
        </mxCell>
        <mxCell id="Ws-c2ICvYeb6l43eeokj-78" value="Run Corresponding Functions&lt;br&gt;StopSong&lt;br&gt;PlaySong&lt;br&gt;PauseSong&lt;br&gt;RepeatSong&lt;br&gt;SkipSong&lt;br&gt;RewindSong&lt;br&gt;FastForwardSong&lt;br&gt;SkipPlaylist" style="rounded=0;whiteSpace=wrap;html=1;" vertex="1" parent="1">
          <mxGeometry x="890" y="610" width="170" height="130" as="geometry" />
        </mxCell>
        <mxCell id="Ws-c2ICvYeb6l43eeokj-96" value="" style="edgeStyle=orthogonalEdgeStyle;rounded=0;orthogonalLoop=1;jettySize=auto;html=1;" edge="1" parent="1" source="Ws-c2ICvYeb6l43eeokj-84">
          <mxGeometry relative="1" as="geometry">
            <mxPoint x="560" y="940" as="targetPoint" />
            <Array as="points">
              <mxPoint x="240" y="940" />
            </Array>
          </mxGeometry>
        </mxCell>
        <mxCell id="Ws-c2ICvYeb6l43eeokj-84" value="BlackBox Duplicate Check:&amp;nbsp;&lt;br&gt;Analyze Duplicates Across Playlists, Ensure no Duplicates within playlist&lt;br&gt;" style="rounded=0;whiteSpace=wrap;html=1;" vertex="1" parent="1">
          <mxGeometry x="112.5" y="690" width="165" height="110" as="geometry" />
        </mxCell>
        <mxCell id="Ws-c2ICvYeb6l43eeokj-98" value="" style="edgeStyle=orthogonalEdgeStyle;rounded=0;orthogonalLoop=1;jettySize=auto;html=1;entryX=0;entryY=0.5;entryDx=0;entryDy=0;entryPerimeter=0;" edge="1" parent="1" source="Ws-c2ICvYeb6l43eeokj-85" target="Ws-c2ICvYeb6l43eeokj-94">
          <mxGeometry relative="1" as="geometry">
            <mxPoint x="402.5" y="905" as="targetPoint" />
            <Array as="points">
              <mxPoint x="490" y="745" />
              <mxPoint x="490" y="935" />
            </Array>
          </mxGeometry>
        </mxCell>
        <mxCell id="Ws-c2ICvYeb6l43eeokj-85" value="BlackBox Duplicate Check:&amp;nbsp;&lt;br&gt;Analyze Duplicates Across Playlists, Ensure no Duplicates within playlist&lt;br&gt;" style="rounded=0;whiteSpace=wrap;html=1;" vertex="1" parent="1">
          <mxGeometry x="320" y="690" width="165" height="110" as="geometry" />
        </mxCell>
        <mxCell id="Ws-c2ICvYeb6l43eeokj-86" value="BlackBox Duplicate Check:&amp;nbsp;&lt;br&gt;Analyze Duplicates Across Playlists, Ensure no Duplicates within playlist&lt;br&gt;" style="rounded=0;whiteSpace=wrap;html=1;" vertex="1" parent="1">
          <mxGeometry x="515" y="690" width="165" height="110" as="geometry" />
        </mxCell>
        <mxCell id="Ws-c2ICvYeb6l43eeokj-87" value="BlackBox Duplicate Check:&amp;nbsp;&lt;br&gt;Analyze Duplicates Across Playlists, Ensure no Duplicates within playlist&lt;br&gt;" style="rounded=0;whiteSpace=wrap;html=1;" vertex="1" parent="1">
          <mxGeometry x="695" y="740" width="165" height="110" as="geometry" />
        </mxCell>
        <mxCell id="Ws-c2ICvYeb6l43eeokj-88" value="BlackBox Duplicate Check:&amp;nbsp;&lt;br&gt;Analyze Duplicates Across Playlists, Ensure no Duplicates within playlist&lt;br&gt;" style="rounded=0;whiteSpace=wrap;html=1;" vertex="1" parent="1">
          <mxGeometry x="885" y="780" width="165" height="110" as="geometry" />
        </mxCell>
        <mxCell id="Ws-c2ICvYeb6l43eeokj-94" value="End" style="strokeWidth=1;html=1;shape=mxgraph.flowchart.terminator;whiteSpace=wrap;rounded=0;shadow=1;labelBackgroundColor=none;fontFamily=Verdana;fontSize=8;align=center;" vertex="1" parent="1">
          <mxGeometry x="567.5" y="920" width="60" height="30" as="geometry" />
        </mxCell>
      </root>
    </mxGraphModel>
  </diagram>
</mxfile>
